Jack and Jill 2011 TS NEW SOURCE READNFO XviD - FYA

iMDB 
http://www.imdb.com/title/tt0810913/

pLOT
Family guy Jack Sadelstein prepares for the annual event
he dreads: the Thanksgiving visit of his twin sister,
the needy and passive-aggressive Jill, who then refuses
to leave.

rEADNFO

FIRST 1 MINUTE 10 SECONDS FROM PREVIOUS CAM
MISSING 50 SECONDS AT 13 MINUTES 41 SECONDS

so here we are with a fixed version of jack and jill
by popular demand as the other TS was a bit blur at the start
readnfo is for the above

iNFO

video
ID : 0
Format : MPEG-4 Visual
Format profile : Advanced Simple@L5
Format settings, BVOP : 2
Format settings, QPel : No
Format settings, GMC : No warppoints
Format settings, Matrix : Default (H.263)
Muxing mode : Packed bitstream
Codec ID : XVID
Codec ID/Hint : XviD
Duration : 1h 27mn
Bit rate : 2 064 Kbps
Width : 720 pixels
Height : 320 pixels
Display aspect ratio : 2.25:1
Frame rate : 24.000 fps
Color space : YUV
Chroma subsampling : 4:2:0
Bit depth : 8 bits
Scan type : Progressive
Compression mode : Lossy
Bits/(Pixel*Frame) : 0.373
Stream size : 1.26 GiB (94%)
Writing library : XviD 64

audio
ID : 1
Format : MPEG Audio
Format version : Version 1
Format profile : Layer 3
Mode : Joint stereo
Mode extension : MS Stereo
Codec ID : 55
Codec ID/Hint : MP3
Duration : 1h 27mn
Bit rate mode : Constant
Bit rate : 128 Kbps
Channel(s) : 2 channels
Sampling rate : 44.1 KHz
Compression mode : Lossy
Stream size : 80.2 MiB (6%)
Alignment : Split accross interleaves
Interleave, duration : 42 ms (1.00 video frame)
Writing library : LAME3.98r
Encoding settings : -m j -V 4 -q 2 -lowpass 17 -b 128
 
http://img194.imageshack.us/img194/161/8j5xi.png
 
http://img100.imageshack.us/img100/861/i9zl8.png
 
http://img857.imageshack.us/img857/9360/pwo5h.png
 
http://img850.imageshack.us/img850/6473/rqur7.png
 
http://img215.imageshack.us/img215/8841/fpwjm.png